<?xml version="1.0" encoding="UTF-8" standalone="no"?>
<svg
   xmlns:dc="http://purl.org/dc/elements/1.1/"
   xmlns:cc="http://creativecommons.org/ns#"
   xmlns:rdf="http://www.w3.org/1999/02/22-rdf-syntax-ns#"
   xmlns:svg="http://www.w3.org/2000/svg"
   xmlns="http://www.w3.org/2000/svg"
   xmlns:sodipodi="http://sodipodi.sourceforge.net/DTD/sodipodi-0.dtd"
   xmlns:inkscape="http://www.inkscape.org/namespaces/inkscape"
   width="530"
   height="100"
   viewBox="0 0 140.22916 26.458334"
   version="1.1"
   id="svg33"
   inkscape:export-filename="C:\Users\Guilherme Andrade\OneDrive\Teamlitcs\light.png"
   inkscape:export-xdpi="113.28593"
   inkscape:export-ydpi="113.28593"
   inkscape:version="1.0.2-2 (e86c870879, 2021-01-15)"
   sodipodi:docname="light.svg">
  <defs
     id="defs27" />
  <sodipodi:namedview
     id="base"
     pagecolor="#ffffff"
     bordercolor="#666666"
     borderopacity="1.0"
     inkscape:pageopacity="0.0"
     inkscape:pageshadow="2"
     inkscape:zoom="0.98994949"
     inkscape:cx="284.38404"
     inkscape:cy="-110.27994"
     inkscape:document-units="mm"
     inkscape:current-layer="layer1"
     inkscape:document-rotation="0"
     showgrid="false"
     units="px"
     inkscape:window-width="1920"
     inkscape:window-height="1017"
     inkscape:window-x="-8"
     inkscape:window-y="-8"
     inkscape:window-maximized="1" />
  <metadata
     id="metadata30">
    <rdf:RDF>
      <cc:Work
         rdf:about="">
        <dc:format>image/svg+xml</dc:format>
        <dc:type
           rdf:resource="http://purl.org/dc/dcmitype/StillImage" />
        <dc:title />
      </cc:Work>
    </rdf:RDF>
  </metadata>
  <g
     inkscape:label="Layer 1"
     inkscape:groupmode="layer"
     id="layer1">
    <g
       aria-label="litcs"
       id="text835"
       style="font-style:normal;font-weight:normal;font-size:22.5778px;line-height:1.25;font-family:sans-serif;fill:#e485c7;fill-opacity:1;stroke:none;stroke-width:0.264583">
      <path
         id="path111"
         style="font-style:normal;font-variant:normal;font-weight:normal;font-stretch:normal;font-size:22.5778px;font-family:Retroica;-inkscape-font-specification:Retroica;fill:#8597e4;fill-opacity:1;stroke-width:0.264583"
         sodipodi:type="inkscape:offset"
         inkscape:radius="0"
         inkscape:original="M 99.310547 4.1269531 C 98.753628 4.1269531 98.280021 4.3215421 97.888672 4.7128906 C 97.497323 5.1042392 97.300781 5.5797997 97.300781 6.1367188 C 97.300781 6.6936378 97.497323 7.1672451 97.888672 7.5585938 C 98.280021 7.9499423 98.753628 8.1464844 99.310547 8.1464844 C 99.867465 8.1464844 100.34108 7.9499423 100.73242 7.5585938 C 101.12378 7.1672452 101.32031 6.6936378 101.32031 6.1367188 C 101.32031 5.5797997 101.12378 5.1042392 100.73242 4.7128906 C 100.34108 4.3215421 99.867465 4.1269531 99.310547 4.1269531 z M 91.859375 5.0292969 L 91.859375 20.833984 L 95.246094 20.833984 L 95.246094 5.0292969 L 91.859375 5.0292969 z M 104.97852 5.6855469 L 104.97852 9.3417969 L 102.62891 9.3417969 L 102.62891 12.277344 L 104.97852 12.277344 L 105 17.71875 C 105 18.215461 105.09086 18.682637 105.27148 19.119141 C 105.46716 19.540593 105.72298 19.916906 106.03906 20.248047 C 106.35516 20.564136 106.72308 20.811565 107.14453 20.992188 C 107.58103 21.187861 108.04821 21.285156 108.54492 21.285156 C 109.53834 21.285156 110.30578 21.240701 110.84766 21.150391 C 111.40457 21.075131 111.84854 20.977837 112.17969 20.857422 L 111.45703 17.740234 C 111.33661 17.800442 111.14203 17.89969 110.87109 18.035156 C 110.61521 18.155571 110.19249 18.214844 109.60547 18.214844 C 109.25928 18.214844 108.9674 18.102731 108.72656 17.876953 C 108.5008 17.636124 108.3803 17.350673 108.36523 17.019531 L 108.36523 12.277344 L 110.50977 12.277344 L 111.16406 9.3417969 L 108.36523 9.3417969 L 108.36523 5.6855469 L 104.97852 5.6855469 z M 118.79492 8.890625 C 117.93697 8.890625 117.1315 9.0555777 116.37891 9.3867188 C 115.62631 9.7028079 114.96455 10.140346 114.39258 10.697266 C 113.83566 11.254184 113.39169 11.915948 113.06055 12.683594 C 112.74446 13.436187 112.58594 14.241653 112.58594 15.099609 C 112.58594 15.942514 112.75284 16.739594 113.08398 17.492188 C 113.43018 18.244781 113.88058 18.908498 114.4375 19.480469 C 115.00947 20.037388 115.67123 20.481359 116.42383 20.8125 C 117.17642 21.128589 117.96707 21.285156 118.79492 21.285156 C 119.96897 21.285156 121.05345 21.067363 122.04688 20.630859 C 123.0403 20.179303 123.82256 19.57038 124.39453 18.802734 L 121.57227 17.109375 C 121.33144 17.440516 120.97833 17.711149 120.51172 17.921875 C 120.04511 18.132601 119.47226 18.238281 118.79492 18.238281 C 118.43368 18.238281 118.08057 18.155805 117.73438 17.990234 C 117.40323 17.809612 117.10101 17.575048 116.83008 17.289062 C 116.5742 16.988025 116.37122 16.649734 116.2207 16.273438 C 116.07018 15.897141 115.99609 15.50601 115.99609 15.099609 C 115.99609 14.678157 116.06375 14.27864 116.19922 13.902344 C 116.34973 13.510996 116.55271 13.172705 116.80859 12.886719 C 117.06447 12.600733 117.35831 12.374555 117.68945 12.208984 C 118.03565 12.043414 118.40358 11.960937 118.79492 11.960938 C 119.50236 11.960937 120.09003 12.075003 120.55664 12.300781 C 121.0383 12.526559 121.40623 12.826828 121.66211 13.203125 L 124.34961 11.351562 C 123.77764 10.598969 123.0018 10.004864 122.02344 9.5683594 C 121.06012 9.1168034 119.98402 8.890625 118.79492 8.890625 z M 130.80664 8.890625 C 130.20457 8.890625 129.61046 8.9731013 129.02344 9.1386719 C 128.45146 9.3042424 127.93983 9.5536246 127.48828 9.8847656 C 127.03672 10.215907 126.66684 10.628289 126.38086 11.125 C 126.10993 11.60666 125.97461 12.171129 125.97461 12.818359 C 125.97461 13.450538 126.11832 13.985371 126.4043 14.421875 C 126.70534 14.843327 127.08165 15.204822 127.5332 15.505859 C 127.98476 15.791845 128.488 16.024456 129.04492 16.205078 C 129.60184 16.370649 130.15149 16.507918 130.69336 16.613281 C 130.79872 16.628334 130.98045 16.664403 131.23633 16.724609 C 131.49221 16.769765 131.74803 16.837423 132.00391 16.927734 C 132.27484 17.018046 132.50745 17.123726 132.70312 17.244141 C 132.91385 17.349504 133.01953 17.478388 133.01953 17.628906 C 133.01953 17.809528 132.86101 17.951277 132.54492 18.056641 C 132.24388 18.162003 131.74707 18.214844 131.05469 18.214844 C 130.57303 18.214844 130.0846 18.087913 129.58789 17.832031 C 129.10623 17.561097 128.7151 17.169966 128.41406 16.658203 L 125.47852 18.214844 C 126.1107 19.193215 126.87814 19.954226 127.78125 20.496094 C 128.69942 21.022909 129.74588 21.285156 130.91992 21.285156 C 131.522 21.285156 132.13931 21.225883 132.77148 21.105469 C 133.41872 20.985054 134.00444 20.78208 134.53125 20.496094 C 135.05806 20.195056 135.4956 19.810358 135.8418 19.34375 C 136.18799 18.862091 136.36133 18.267985 136.36133 17.560547 C 136.36133 16.898265 136.20281 16.348613 135.88672 15.912109 C 135.58568 15.460553 135.19455 15.08424 134.71289 14.783203 C 134.24628 14.482166 133.71983 14.24117 133.13281 14.060547 C 132.54579 13.879924 131.97293 13.721404 131.41602 13.585938 C 131.19024 13.540782 130.94924 13.489894 130.69336 13.429688 C 130.45253 13.354428 130.22635 13.278384 130.01562 13.203125 C 129.81995 13.112814 129.655 13.030337 129.51953 12.955078 C 129.38406 12.864767 129.31641 12.773905 129.31641 12.683594 C 129.31641 12.472868 129.46011 12.299529 129.74609 12.164062 C 130.03208 12.028596 130.42322 11.960938 130.91992 11.960938 C 131.35643 11.960938 131.8004 12.081436 132.25195 12.322266 C 132.71857 12.563096 133.11808 12.947794 133.44922 13.474609 L 136.17969 11.757812 C 135.54751 10.869753 134.76524 10.169967 133.83203 9.6582031 C 132.91386 9.1464397 131.90543 8.890625 130.80664 8.890625 z M 97.617188 9.3417969 L 97.617188 20.833984 L 101.00391 20.833984 L 101.00391 9.3417969 L 97.617188 9.3417969 z "
         d="m 99.310547,4.1269531 c -0.556919,0 -1.030526,0.194589 -1.421875,0.5859375 -0.391349,0.3913486 -0.587891,0.8669091 -0.587891,1.4238282 0,0.556919 0.196542,1.0305263 0.587891,1.421875 0.391349,0.3913485 0.864956,0.5878906 1.421875,0.5878906 0.556918,0 1.030533,-0.1965421 1.421873,-0.5878906 0.39136,-0.3913486 0.58789,-0.864956 0.58789,-1.421875 0,-0.5569191 -0.19653,-1.0324796 -0.58789,-1.4238282 C 100.34108,4.3215421 99.867465,4.1269531 99.310547,4.1269531 Z M 91.859375,5.0292969 V 20.833984 h 3.386719 V 5.0292969 Z m 13.119145,0.65625 v 3.65625 h -2.34961 v 2.9355471 h 2.34961 L 105,17.71875 c 0,0.496711 0.0909,0.963887 0.27148,1.400391 0.19568,0.421452 0.4515,0.797765 0.76758,1.128906 0.3161,0.316089 0.68402,0.563518 1.10547,0.744141 0.4365,0.195673 0.90368,0.292968 1.40039,0.292968 0.99342,0 1.76086,-0.04445 2.30274,-0.134765 0.55691,-0.07526 1.00088,-0.172554 1.33203,-0.292969 l -0.72266,-3.117188 c -0.12042,0.06021 -0.315,0.159456 -0.58594,0.294922 -0.25588,0.120415 -0.6786,0.179688 -1.26562,0.179688 -0.34619,0 -0.63807,-0.112113 -0.87891,-0.337891 -0.22576,-0.240829 -0.34626,-0.52628 -0.36133,-0.857422 v -4.742187 h 2.14454 l 0.65429,-2.9355471 h -2.79883 v -3.65625 z m 13.8164,3.2050781 c -0.85795,0 -1.66342,0.1649527 -2.41601,0.4960938 -0.7526,0.3160891 -1.41436,0.7536272 -1.98633,1.3105472 -0.55692,0.556918 -1.00089,1.218682 -1.33203,1.986328 -0.31609,0.752593 -0.47461,1.558059 -0.47461,2.416015 0,0.842905 0.1669,1.639985 0.49804,2.392579 0.3462,0.752593 0.7966,1.41631 1.35352,1.988281 0.57197,0.556919 1.23373,1.00089 1.98633,1.332031 0.75259,0.316089 1.54324,0.472656 2.37109,0.472656 1.17405,0 2.25853,-0.217793 3.25196,-0.654297 0.99342,-0.451556 1.77568,-1.060479 2.34765,-1.828125 l -2.82226,-1.693359 c -0.24083,0.331141 -0.59394,0.601774 -1.06055,0.8125 -0.46661,0.210726 -1.03946,0.316406 -1.7168,0.316406 -0.36124,0 -0.71435,-0.08248 -1.06054,-0.248047 -0.33115,-0.180622 -0.63337,-0.415186 -0.9043,-0.701172 -0.25588,-0.301037 -0.45886,-0.639328 -0.60938,-1.015624 -0.15052,-0.376297 -0.22461,-0.767428 -0.22461,-1.173829 0,-0.421452 0.0677,-0.820969 0.20313,-1.197265 0.15051,-0.391348 0.35349,-0.729639 0.60937,-1.015625 0.25588,-0.285986 0.54972,-0.512164 0.88086,-0.677735 0.3462,-0.16557 0.71413,-0.248047 1.10547,-0.248046 0.70744,-1e-6 1.29511,0.114065 1.76172,0.339843 0.48166,0.225778 0.84959,0.526047 1.10547,0.902344 l 2.6875,-1.851563 c -0.57197,-0.752593 -1.34781,-1.346698 -2.32617,-1.7832026 -0.96332,-0.451556 -2.03942,-0.6777344 -3.22852,-0.6777344 z m 12.01172,0 c -0.60207,0 -1.19618,0.082476 -1.7832,0.2480469 -0.57198,0.1655705 -1.08361,0.4149527 -1.53516,0.7460937 -0.45156,0.3311414 -0.82144,0.7435234 -1.10742,1.2402344 -0.27093,0.48166 -0.40625,1.046129 -0.40625,1.693359 0,0.632179 0.14371,1.167012 0.42969,1.603516 0.30104,0.421452 0.67735,0.782947 1.1289,1.083984 0.45156,0.285986 0.9548,0.518597 1.51172,0.699219 0.55692,0.165571 1.10657,0.30284 1.64844,0.408203 0.10536,0.01505 0.28709,0.05112 0.54297,0.111328 0.25588,0.04516 0.5117,0.112814 0.76758,0.203125 0.27093,0.09031 0.50354,0.195992 0.69921,0.316407 0.21073,0.105363 0.31641,0.234247 0.31641,0.384765 0,0.180622 -0.15852,0.322371 -0.47461,0.427735 -0.30104,0.105362 -0.79785,0.158203 -1.49023,0.158203 -0.48166,0 -0.97009,-0.126931 -1.4668,-0.382813 -0.48166,-0.270934 -0.87279,-0.662065 -1.17383,-1.173828 l -2.93554,1.556641 c 0.63218,0.978371 1.39962,1.739382 2.30273,2.28125 0.91817,0.526815 1.96463,0.789062 3.13867,0.789062 0.60208,0 1.21939,-0.05927 1.85156,-0.179687 0.64724,-0.120415 1.23296,-0.323389 1.75977,-0.609375 0.52681,-0.301038 0.96435,-0.685736 1.31055,-1.152344 0.34619,-0.481659 0.51953,-1.075765 0.51953,-1.783203 0,-0.662282 -0.15852,-1.211934 -0.47461,-1.648438 -0.30104,-0.451556 -0.69217,-0.827869 -1.17383,-1.128906 -0.46661,-0.301037 -0.99306,-0.542033 -1.58008,-0.722656 -0.58702,-0.180623 -1.15988,-0.339143 -1.71679,-0.474609 -0.22578,-0.04516 -0.46678,-0.09604 -0.72266,-0.15625 -0.24083,-0.07526 -0.46701,-0.151304 -0.67774,-0.226563 -0.19567,-0.09031 -0.36062,-0.172788 -0.49609,-0.248047 -0.13547,-0.09031 -0.20312,-0.181173 -0.20312,-0.271484 0,-0.210726 0.1437,-0.384065 0.42968,-0.519532 0.28599,-0.135466 0.67713,-0.203124 1.17383,-0.203124 0.43651,0 0.88048,0.120498 1.33203,0.361328 0.46662,0.24083 0.86613,0.625528 1.19727,1.152343 l 2.73047,-1.716797 c -0.63218,-0.888059 -1.41445,-1.587845 -2.34766,-2.0996089 -0.91817,-0.5117634 -1.9266,-0.7675781 -3.02539,-0.7675781 z M 97.617188,9.3417969 V 20.833984 h 3.386722 V 9.3417969 Z" />
    </g>
    <g
       aria-label="team"
       id="text835-96"
       style="font-style:normal;font-weight:normal;font-size:22.5778px;line-height:1.25;font-family:sans-serif;fill:#232f3e;fill-opacity:1;stroke:none;stroke-width:0.264583">
      <path
         id="path98"
         style="font-style:normal;font-variant:normal;font-weight:normal;font-stretch:normal;font-size:22.5778px;font-family:Retroica;-inkscape-font-specification:Retroica;fill:#232f3e;fill-opacity:1;stroke-width:0.264583"
         sodipodi:type="inkscape:offset"
         inkscape:radius="0"
         inkscape:original="M 33.431641 5.6875 L 33.431641 9.3457031 L 31.083984 9.3457031 L 31.083984 12.28125 L 33.431641 12.28125 L 33.455078 17.722656 C 33.455078 18.219368 33.543987 18.686543 33.724609 19.123047 C 33.920283 19.544499 34.176098 19.920812 34.492188 20.251953 C 34.808277 20.568042 35.178157 20.815472 35.599609 20.996094 C 36.036114 21.191768 36.501336 21.289062 36.998047 21.289062 C 37.99147 21.289062 38.760867 21.244608 39.302734 21.154297 C 39.859653 21.079038 40.303624 20.981743 40.634766 20.861328 L 39.912109 17.744141 L 39.324219 18.039062 C 39.068337 18.159478 38.64757 18.21875 38.060547 18.21875 C 37.714354 18.21875 37.420517 18.106637 37.179688 17.880859 C 36.953911 17.640029 36.833413 17.354579 36.818359 17.023438 L 36.818359 12.28125 L 38.962891 12.28125 L 39.617188 9.3457031 L 36.818359 9.3457031 L 36.818359 5.6875 L 33.431641 5.6875 z M 47.519531 8.8945312 C 46.631471 8.8945313 45.796369 9.0594839 45.013672 9.390625 C 44.230975 9.7067142 43.546007 10.144253 42.958984 10.701172 C 42.371961 11.258091 41.904786 11.919855 41.558594 12.6875 C 41.212401 13.440093 41.041016 14.24556 41.041016 15.103516 C 41.041016 15.94642 41.205969 16.7435 41.537109 17.496094 C 41.883303 18.248687 42.342092 18.912404 42.914062 19.484375 C 43.501085 20.041294 44.186053 20.485265 44.96875 20.816406 C 45.766499 21.132496 46.616419 21.289062 47.519531 21.289062 C 48.061399 21.289062 48.596232 21.22979 49.123047 21.109375 C 49.649862 20.98896 50.155059 20.824007 50.636719 20.613281 C 51.118378 20.387503 51.562349 20.123303 51.96875 19.822266 C 52.375151 19.506176 52.72826 19.153067 53.029297 18.761719 L 50.296875 17.089844 C 50.025941 17.436036 49.626425 17.715055 49.099609 17.925781 C 48.587846 18.136508 48.061399 18.242188 47.519531 18.242188 C 46.766938 18.242187 46.143196 18.039213 45.646484 17.632812 C 45.164824 17.211361 44.826533 16.714549 44.630859 16.142578 L 53.773438 16.142578 C 53.803538 15.977007 53.826744 15.803669 53.841797 15.623047 C 53.85685 15.442424 53.865234 15.269086 53.865234 15.103516 C 53.865234 14.260611 53.698328 13.463531 53.367188 12.710938 C 53.051098 11.958344 52.607128 11.303012 52.035156 10.746094 C 51.478238 10.174123 50.808088 9.7217661 50.025391 9.390625 C 49.257745 9.0594839 48.422643 8.8945312 47.519531 8.8945312 z M 61.585938 8.8945312 C 60.743033 8.8945313 59.945953 9.0594839 59.193359 9.390625 C 58.440766 9.7067142 57.777049 10.144253 57.205078 10.701172 C 56.648159 11.258091 56.204188 11.919855 55.873047 12.6875 C 55.541906 13.440093 55.376953 14.24556 55.376953 15.103516 C 55.376953 15.94642 55.535473 16.7435 55.851562 17.496094 C 56.182703 18.248687 56.626674 18.912404 57.183594 19.484375 C 57.740513 20.041294 58.395844 20.485265 59.148438 20.816406 C 59.916083 21.132496 60.727982 21.289062 61.585938 21.289062 C 62.218116 21.289062 62.820607 21.162132 63.392578 20.90625 C 63.964549 20.66542 64.490997 20.341947 64.972656 19.935547 L 64.972656 20.837891 L 68.359375 20.837891 L 68.359375 9.3457031 L 64.972656 9.3457031 L 64.972656 10.226562 C 64.490997 9.8352142 63.964549 9.5201267 63.392578 9.2792969 C 62.820607 9.0234151 62.218116 8.8945312 61.585938 8.8945312 z M 77.300781 8.8945312 C 76.668603 8.8945313 76.110566 9.0530514 75.628906 9.3691406 C 75.162298 9.670178 74.733145 10.076127 74.341797 10.587891 L 74.341797 9.3457031 L 70.933594 9.3457031 L 70.933594 20.837891 L 74.341797 20.837891 L 74.341797 14.470703 C 74.341797 14.12451 74.394637 13.801037 74.5 13.5 C 74.620415 13.198963 74.77055 12.936716 74.951172 12.710938 C 75.146847 12.48516 75.373025 12.303435 75.628906 12.167969 C 75.884788 12.032502 76.155421 11.964844 76.441406 11.964844 C 76.727392 11.964844 76.999977 12.032502 77.255859 12.167969 C 77.511741 12.288384 77.729534 12.461722 77.910156 12.6875 C 78.105831 12.913278 78.255965 13.177478 78.361328 13.478516 C 78.481743 13.779553 78.541016 14.094641 78.541016 14.425781 L 78.541016 20.837891 L 81.927734 20.837891 L 81.927734 14.470703 C 81.927734 14.12451 81.980575 13.801037 82.085938 13.5 C 82.206353 13.198963 82.35844 12.936716 82.539062 12.710938 C 82.734737 12.48516 82.958962 12.303435 83.214844 12.167969 C 83.470726 12.032502 83.743312 11.964844 84.029297 11.964844 C 84.315282 11.964844 84.585915 12.032502 84.841797 12.167969 C 85.097679 12.288384 85.315472 12.461722 85.496094 12.6875 C 85.691768 12.913278 85.841903 13.177478 85.947266 13.478516 C 86.067681 13.779553 86.128906 14.094641 86.128906 14.425781 L 86.128906 20.837891 L 89.515625 20.837891 L 89.515625 13.771484 C 89.515625 13.09415 89.395127 12.462023 89.154297 11.875 C 88.928519 11.287977 88.611479 10.776348 88.205078 10.339844 C 87.798678 9.8882879 87.316685 9.5351786 86.759766 9.2792969 C 86.217898 9.0234151 85.638611 8.8945312 85.021484 8.8945312 C 84.01301 8.8945313 83.177908 9.0594839 82.515625 9.390625 C 81.853343 9.7217661 81.303691 10.136101 80.867188 10.632812 C 80.490891 10.105997 80.002465 9.6852298 79.400391 9.3691406 C 78.813368 9.0530514 78.113583 8.8945312 77.300781 8.8945312 z M 47.519531 11.964844 C 48.196865 11.964844 48.776152 12.146568 49.257812 12.507812 C 49.739472 12.869057 50.094535 13.304642 50.320312 13.816406 L 44.720703 13.816406 C 44.961533 13.304642 45.314642 12.869057 45.78125 12.507812 C 46.262909 12.146568 46.842197 11.964844 47.519531 11.964844 z M 61.947266 11.964844 C 62.368718 11.964844 62.768235 12.04732 63.144531 12.212891 C 63.53588 12.378461 63.874171 12.60464 64.160156 12.890625 C 64.446142 13.161558 64.672321 13.493417 64.837891 13.884766 C 65.003461 14.261062 65.085938 14.667012 65.085938 15.103516 C 65.085938 15.54002 65.003461 15.954354 64.837891 16.345703 C 64.672321 16.722 64.446142 17.051905 64.160156 17.337891 C 63.874171 17.608824 63.53588 17.82857 63.144531 17.994141 C 62.768235 18.159711 62.368718 18.242188 61.947266 18.242188 C 61.510762 18.242188 61.096427 18.159711 60.705078 17.994141 C 60.328781 17.82857 59.998876 17.608824 59.712891 17.337891 C 59.441957 17.051905 59.222211 16.722 59.056641 16.345703 C 58.891071 15.954354 58.808594 15.54002 58.808594 15.103516 C 58.808594 14.667012 58.891071 14.261062 59.056641 13.884766 C 59.222211 13.493417 59.441957 13.161558 59.712891 12.890625 C 59.998876 12.60464 60.328781 12.378461 60.705078 12.212891 C 61.096427 12.04732 61.510762 11.964844 61.947266 11.964844 z "
         d="M 33.431641,5.6875 V 9.3457031 H 31.083984 V 12.28125 h 2.347657 l 0.02344,5.441406 c 0,0.496712 0.08891,0.963887 0.269531,1.400391 0.195674,0.421452 0.451489,0.797765 0.767579,1.128906 0.316089,0.316089 0.685969,0.563519 1.107421,0.744141 0.436505,0.195674 0.901727,0.292968 1.398438,0.292968 0.993423,0 1.76282,-0.04445 2.304687,-0.134765 0.556919,-0.07526 1.00089,-0.172554 1.332032,-0.292969 l -0.722657,-3.117187 -0.58789,0.294921 c -0.255882,0.120416 -0.676649,0.179688 -1.263672,0.179688 -0.346193,0 -0.64003,-0.112113 -0.880859,-0.337891 -0.225777,-0.24083 -0.346275,-0.52628 -0.361329,-0.857421 V 12.28125 h 2.144532 L 39.617188,9.3457031 H 36.818359 V 5.6875 Z m 14.08789,3.2070312 c -0.88806,1e-7 -1.723162,0.1649527 -2.505859,0.4960938 -0.782697,0.3160892 -1.467665,0.753628 -2.054688,1.310547 -0.587023,0.556919 -1.054198,1.218683 -1.40039,1.986328 -0.346193,0.752593 -0.517578,1.55806 -0.517578,2.416016 0,0.842904 0.164953,1.639984 0.496093,2.392578 0.346194,0.752593 0.804983,1.41631 1.376953,1.988281 0.587023,0.556919 1.271991,1.00089 2.054688,1.332031 0.797749,0.31609 1.647669,0.472656 2.550781,0.472656 0.541868,0 1.076701,-0.05927 1.603516,-0.179687 0.526815,-0.120415 1.032012,-0.285368 1.513672,-0.496094 0.481659,-0.225778 0.92563,-0.489978 1.332031,-0.791015 0.406401,-0.31609 0.75951,-0.669199 1.060547,-1.060547 l -2.732422,-1.671875 c -0.270934,0.346192 -0.67045,0.625211 -1.197266,0.835937 -0.511763,0.210727 -1.03821,0.316407 -1.580078,0.316407 -0.752593,-10e-7 -1.376335,-0.202975 -1.873047,-0.609376 -0.48166,-0.421451 -0.819951,-0.918263 -1.015625,-1.490234 h 9.142579 c 0.0301,-0.165571 0.05331,-0.338909 0.06836,-0.519531 0.01505,-0.180623 0.02344,-0.353961 0.02344,-0.519531 0,-0.842905 -0.166906,-1.639985 -0.498046,-2.392578 -0.31609,-0.752594 -0.76006,-1.407926 -1.332032,-1.964844 C 51.478238,10.174123 50.808088,9.7217661 50.025391,9.390625 49.257745,9.0594839 48.422643,8.8945312 47.519531,8.8945312 Z m 14.066407,0 c -0.842905,1e-7 -1.639985,0.1649527 -2.392579,0.4960938 -0.752593,0.3160892 -1.41631,0.753628 -1.988281,1.310547 -0.556919,0.556919 -1.00089,1.218683 -1.332031,1.986328 -0.331141,0.752593 -0.496094,1.55806 -0.496094,2.416016 0,0.842904 0.15852,1.639984 0.474609,2.392578 0.331141,0.752593 0.775112,1.41631 1.332032,1.988281 0.556919,0.556919 1.21225,1.00089 1.964844,1.332031 0.767645,0.31609 1.579544,0.472656 2.4375,0.472656 0.632178,0 1.234669,-0.12693 1.80664,-0.382812 0.571971,-0.24083 1.098419,-0.564303 1.580078,-0.970703 v 0.902344 h 3.386719 V 9.3457031 H 64.972656 V 10.226562 C 64.490997,9.8352142 63.964549,9.5201267 63.392578,9.2792969 62.820607,9.0234151 62.218116,8.8945312 61.585938,8.8945312 Z m 15.714843,0 c -0.632178,1e-7 -1.190215,0.1585202 -1.671875,0.4746094 -0.466608,0.3010374 -0.895761,0.7069864 -1.287109,1.2187504 V 9.3457031 H 70.933594 V 20.837891 h 3.408203 v -6.367188 c 0,-0.346193 0.05284,-0.669666 0.158203,-0.970703 0.120415,-0.301037 0.27055,-0.563284 0.451172,-0.789062 0.195675,-0.225778 0.421853,-0.407503 0.677734,-0.542969 0.255882,-0.135467 0.526515,-0.203125 0.8125,-0.203125 0.285986,0 0.558571,0.06766 0.814453,0.203125 0.255882,0.120415 0.473675,0.293753 0.654297,0.519531 0.195675,0.225778 0.345809,0.489978 0.451172,0.791016 0.120415,0.301037 0.179688,0.616125 0.179688,0.947265 v 6.41211 h 3.386718 v -6.367188 c 0,-0.346193 0.05284,-0.669666 0.158204,-0.970703 0.120415,-0.301037 0.272502,-0.563284 0.453124,-0.789062 0.195675,-0.225778 0.4199,-0.407503 0.675782,-0.542969 0.255882,-0.135467 0.528468,-0.203125 0.814453,-0.203125 0.285985,0 0.556618,0.06766 0.8125,0.203125 0.255882,0.120415 0.473675,0.293753 0.654297,0.519531 0.195674,0.225778 0.345809,0.489978 0.451172,0.791016 0.120415,0.301037 0.18164,0.616125 0.18164,0.947265 v 6.41211 h 3.386719 v -7.066407 c 0,-0.677334 -0.120498,-1.309461 -0.361328,-1.896484 -0.225778,-0.587023 -0.542818,-1.098652 -0.949219,-1.535156 -0.4064,-0.4515561 -0.888393,-0.8046654 -1.445312,-1.0605471 -0.541868,-0.2558818 -1.121155,-0.3847657 -1.738282,-0.3847657 -1.008474,1e-7 -1.843576,0.1649527 -2.505859,0.4960938 -0.662282,0.3311411 -1.211934,0.745476 -1.648437,1.242187 C 80.490891,10.105997 80.002465,9.6852298 79.400391,9.3691406 78.813368,9.0530514 78.113583,8.8945312 77.300781,8.8945312 Z m -29.78125,3.0703128 c 0.677334,0 1.256621,0.181724 1.738281,0.542968 0.48166,0.361245 0.836723,0.79683 1.0625,1.308594 h -5.599609 c 0.24083,-0.511764 0.593939,-0.947349 1.060547,-1.308594 0.481659,-0.361244 1.060947,-0.542968 1.738281,-0.542968 z m 14.427735,0 c 0.421452,0 0.820969,0.08248 1.197265,0.248047 0.391349,0.16557 0.72964,0.391749 1.015625,0.677734 0.285986,0.270933 0.512165,0.602792 0.677735,0.994141 0.16557,0.376296 0.248047,0.782246 0.248047,1.21875 0,0.436504 -0.08248,0.850838 -0.248047,1.242187 -0.16557,0.376297 -0.391749,0.706202 -0.677735,0.992188 -0.285985,0.270933 -0.624276,0.490679 -1.015625,0.65625 -0.376296,0.16557 -0.775813,0.248047 -1.197265,0.248047 -0.436504,0 -0.850839,-0.08248 -1.242188,-0.248047 -0.376297,-0.165571 -0.706202,-0.385317 -0.992187,-0.65625 -0.270934,-0.285986 -0.49068,-0.615891 -0.65625,-0.992188 -0.16557,-0.391349 -0.248047,-0.805683 -0.248047,-1.242187 0,-0.436504 0.08248,-0.842454 0.248047,-1.21875 0.16557,-0.391349 0.385316,-0.723208 0.65625,-0.994141 0.285985,-0.285985 0.61589,-0.512164 0.992187,-0.677734 0.391349,-0.165571 0.805684,-0.248047 1.242188,-0.248047 z" />
    </g>
    <path
       style="fill:#232f3e;stroke-width:0.0279781;fill-opacity:1"
       d="m 14.794263,24.69419 c -2.51703,-0.196055 -4.78049,-1.118711 -6.7168797,-2.738008 -0.53739,-0.449389 -1.27231,-1.225443 -1.75231,-1.850383 -0.97206,-1.26556 -1.6987196,-2.799027 -2.0652596,-4.358318 -0.33433,-1.422225 -0.4007,-2.912332 -0.19468,-4.370885 0.63481,-4.4943356 3.9318496,-8.2647096 8.3322293,-9.5284446 0.9408,-0.270188 2.34832,-0.483853 2.99827,-0.455144 l 0.21178,0.0094 -0.20265,0.657488 c -0.24271,0.787441 -1.16176,3.798177 -1.35796,4.448536 -0.0766,0.253903 -0.19419,0.637903 -0.26132,0.853335 -0.0671,0.215433 -0.14063,0.454647 -0.16333,0.531587 -0.0456,0.154472 -1.35724,4.4557396 -1.60616,5.2669876 -0.0862,0.28088 -0.1489,0.518501 -0.13935,0.528045 0.0169,0.01688 0.68443,-0.03953 3.3282,-0.28118 1.12546,-0.10288 1.28,-0.111759 1.27999,-0.07356 0,0.02388 -0.13296,0.698129 -0.29546,1.498307 -0.16251,0.800177 -0.34396,1.69408 -0.40324,1.986453 -0.0593,0.292372 -0.10486,0.534544 -0.10131,0.53816 0.004,0.0037 0.29669,-0.430747 0.65142,-0.965249 0.35472,-0.534502 1.32751,-1.997923 2.16175,-3.252046 0.83423,-1.254124 1.52745,-2.299794 1.54048,-2.323711 0.0209,-0.03835 -2e-5,-0.04091 -0.17721,-0.02171 -0.11049,0.01198 -0.72339,0.07819 -1.36199,0.147135 -0.6386,0.06894 -1.52263,0.164626 -1.9645,0.212628 -0.44186,0.048 -0.82666,0.08319 -0.8551,0.07821 -0.0439,-0.0077 0.0399,-0.19489 0.5556,-1.2401106 0.33402,-0.677073 1.32069,-2.678912 2.1926,-4.448535 0.87191,-1.769622 1.59527,-3.227534 1.60747,-3.239806 0.053,-0.05327 1.2221,0.527789 1.79071,0.889992 2.58444,1.646268 4.4192,4.189779 5.12271,7.1015386 0.24285,1.005169 0.31875,1.658644 0.31895,2.746436 2.2e-4,0.876288 -0.0383,1.348724 -0.16747,2.056399 -0.51779,2.836904 -2.01405,5.329928 -4.27136,7.116848 -1.6974,1.343682 -3.78489,2.198235 -5.95666,2.438467 -0.4708,0.05208 -1.64045,0.07525 -2.07796,0.04118 z m 1.49473,-1.79169 c 2.34821,-0.165238 4.51486,-1.136052 6.2074,-2.78136 1.43161,-1.391655 2.40267,-3.169655 2.79951,-5.125858 0.13077,-0.64462 0.17717,-1.134249 0.17986,-1.898026 0.003,-0.895713 -0.0638,-1.513919 -0.25015,-2.308203 -0.33997,-1.4493676 -1.11963,-2.9840846 -2.08226,-4.0988076 -0.41209,-0.477195 -1.08428,-1.109144 -1.58046,-1.485839 -0.27599,-0.209526 -0.71016,-0.499402 -0.72494,-0.484015 -0.0295,0.03066 -2.14579,4.368365 -2.13604,4.378112 0.006,0.0062 0.16774,-0.0072 0.35897,-0.02994 0.19122,-0.02267 0.81981,-0.09208 1.39687,-0.154231 0.57705,-0.06215 1.51295,-0.163817 2.07977,-0.225917 0.56683,-0.06209 1.05369,-0.109031 1.08193,-0.104285 0.0426,0.0072 0.0117,0.06826 -0.18068,0.358354 -0.1276,0.19235 -1.14793,1.7283536 -2.26738,3.4133426 -1.11945,1.684987 -2.65392,3.995202 -3.40992,5.133809 -0.75601,1.138607 -1.86025,2.800514 -2.45387,3.693125 -0.98898,1.487088 -1.07417,1.624403 -1.01778,1.640541 0.0585,0.01674 0.58291,0.07222 0.85206,0.09014 0.30067,0.02002 0.7709,0.01553 1.14711,-0.01089 z m -3.12235,-2.174242 c 0.19852,-0.980955 0.52735,-2.605764 0.73074,-3.610686 l 0.3698,-1.82713 -0.14319,0.01614 c -0.31092,0.03505 -4.7826297,0.434763 -4.7873197,0.427922 -0.003,-0.004 0.15737,-0.536086 0.35583,-1.182383 0.19846,-0.646297 0.7495697,-2.446695 1.2246907,-4.000884 1.636899,-5.3545736 2.122359,-6.9387406 2.141299,-6.9875586 0.0104,-0.02693 0.008,-0.04896 -0.005,-0.04896 -0.0733,1.1e-5 -0.83492,0.248928 -1.17109,0.382725 -3.1914097,1.270224 -5.4689297,4.124211 -6.0131097,7.5351036 -0.11037,0.691883 -0.13742,1.112207 -0.11954,1.858147 0.0364,1.518068 0.35882,2.820362 1.03279,4.17116 0.48151,0.965061 1.0437,1.738525 1.85251,2.548721 0.6111,0.612146 1.08951,0.993966 1.8143997,1.448087 0.364411,0.228286 1.07302,0.586895 1.47493,0.746422 0.26345,0.104567 0.83161,0.30522 0.86732,0.306299 0.008,2.12e-4 0.17641,-0.802175 0.37493,-1.78313 z"
       id="path893"
       inkscape:export-xdpi="113"
       inkscape:export-ydpi="113" />
  </g>
</svg>
